<?xml version="1.0" ?><!DOCTYPE svg  PUBLIC '-//W3C//DTD SVG 1.1//EN'  'http://www.w3.org/Graphics/SVG/1.1/DTD/svg11.dtd'><svg enable-background="new 0 0 512 512" height="512px" id="Cards" version="1.1" viewBox="0 0 512 512" width="512px" xml:space="preserve" xmlns="http://www.w3.org/2000/svg" xmlns:xlink="http://www.w3.org/1999/xlink"><g><path clip-rule="evenodd" d="M263.648,90.362c0-5.646-4.593-10.239-10.239-10.239H113.041   c-5.646,0-10.24,4.594-10.24,10.239v198.827c0,5.646,4.594,10.24,10.24,10.24h92.583V177.945c0-10.119,8.203-18.321,18.322-18.321   h39.703V90.362z" fill-rule="evenodd"/><path clip-rule="evenodd" d="M95.9,289.189V90.362c0-9.451,7.689-17.14,17.141-17.14H253.41   c9.451,0,17.14,7.689,17.14,17.14v69.262h16.431V63.949c0-7.561-6.129-13.69-13.69-13.69H90.958c-7.561,0-13.69,6.129-13.69,13.69   v255.414c0,7.561,6.129,13.69,13.69,13.69h114.666V306.33h-92.583C103.589,306.33,95.9,298.641,95.9,289.189z" fill-rule="evenodd"/><path clip-rule="evenodd" d="M421.042,178.946H238.71c-7.561,0-13.69,6.129-13.69,13.69v255.414   c0,7.561,6.129,13.689,13.69,13.689h182.332c7.562,0,13.69-6.129,13.69-13.689V192.637   C434.732,185.076,428.604,178.946,421.042,178.946z M424.732,448.051c0,2.035-1.656,3.689-3.69,3.689H238.71   c-2.035,0-3.69-1.654-3.69-3.689V192.637c0-2.035,1.656-3.69,3.69-3.69h182.332c2.034,0,3.69,1.655,3.69,3.69V448.051z" fill-rule="evenodd"/><path clip-rule="evenodd" d="M331.492,258.82c-14.23,21.914-32.082,42.252-52.422,61.5   c22.039,18.707,39.531,39.185,52.422,61.471c13.127-23.889,30.19-44.711,52.422-61.471   C362.027,299.802,344.287,279.297,331.492,258.82z" fill-rule="evenodd"/></g></svg>